<?xml version="1.0" encoding="UTF-8" standalone="no"?>
<svg
   role="img"
   aria-label="Logo de TRAM Alicante"
   width="490"
   height="134"
   viewBox="0 0 490 134"
   version="1.1"
   xml:space="preserve"
   style="clip-rule:evenodd;fill-rule:evenodd;stroke-linejoin:round;stroke-miterlimit:2"
   id="svg110"
   sodipodi:docname="logotramalicante.svg"
   inkscape:version="1.1 (c68e22c387, 2021-05-23)"
   xmlns:inkscape="http://www.inkscape.org/namespaces/inkscape"
   xmlns:sodipodi="http://sodipodi.sourceforge.net/DTD/sodipodi-0.dtd"
   xmlns="http://www.w3.org/2000/svg"
   xmlns:svg="http://www.w3.org/2000/svg"><defs
   id="defs114">
        
    
            
            
            
            
            
            
            
            
            
            
            
            
            
            
            
            
            
            
            
            
            
            
            
            
            
            
        </defs><sodipodi:namedview
   id="namedview112"
   pagecolor="#ffffff"
   bordercolor="#999999"
   borderopacity="1"
   inkscape:pageshadow="0"
   inkscape:pageopacity="0"
   inkscape:pagecheckerboard="0"
   showgrid="false"
   inkscape:zoom="1"
   inkscape:cx="317"
   inkscape:cy="72.5"
   inkscape:window-width="1920"
   inkscape:window-height="1001"
   inkscape:window-x="-9"
   inkscape:window-y="-9"
   inkscape:window-maximized="1"
   inkscape:current-layer="svg110" />
    <g
   transform="matrix(0.70016037,0,0,0.7001604,70.373186,84.481813)"
   id="g4">
                <path
   d="m 0,-44.983 h -33.612 c -3.286,-0.445 -2.86,-3.257 -2.702,-3.867 l 4.513,-20.049 c 0.117,-0.834 0.757,-2.926 3.071,-2.926 H 75.782 c 2.062,0 3.316,1.914 2.969,3.405 -1.195,5.156 -2.74,11.821 -4.739,20.428 -0.355,1.526 -0.813,2.852 -3.079,3.009 H 39.209 L 23.075,24.512 c -0.291,1.51 -1.702,2.33 -2.911,2.309 h -33.079 c -2.106,0 -3.382,-1.614 -2.905,-3.648 z"
   style="fill:#ffffff;fill-rule:nonzero"
   id="path2" />
            </g><g
   transform="matrix(0.70016037,0,0,0.7001604,127.3642,112.80488)"
   id="g8"
   style="fill:#ffffff">
                <path
   d="m 0,-132.488 h -87.513 l 5.981,-25.572 H 0.064 c 27.897,0.282 46.391,27.375 41.398,53.016 L 22.571,-21.962 C 16.51,4.39 -9.201,25.572 -36.139,25.572 h -96.694 c -29.431,0 -47.931,-24.902 -41.417,-53.241 l 18.851,-82.863 c 0.181,-0.847 0.399,-1.685 0.639,-2.514 l 27.479,-0.005 c -1.441,2.604 -2.522,5.358 -3.18,8.204 l -18.859,82.885 c -3.025,13.197 4.389,21.964 16.487,21.964 h 96.694 c 14.566,0 30.264,-12.487 33.769,-27.652 l 18.792,-82.651 c 2.189,-11.746 -6.5,-22 -16.422,-22.187"
   style="fill:#ffffff;fill-rule:nonzero"
   id="path6" />
            </g><g
   id="g2210"
   transform="matrix(1.2393393,0,0,1.5661754,-41.023408,-37.15988)"><g
     transform="matrix(0.70016037,0,0,0.7001604,171.40275,72.939883)"
     id="g12">
                <path
   d="M 0,-39.857 H 26.912 L 13.858,16.334 h 25.897 l 13.038,-56.191 h 26.204 l 3.797,-16.334 H 3.699 Z"
   style="fill:#ffffff;fill-rule:nonzero"
   id="path10" />
            </g><g
     transform="matrix(0.70016037,0,0,0.7001604,220.6093,33.602388)"
     id="g16">
                <path
   d="M 0,72.518 H 25.37 L 31.226,47.151 H 47.15 L 56.7,72.518 H 82.69 L 70.877,43.865 C 76.834,41.7 82.895,39.439 87.111,31.637 89.055,27.935 89.875,24.034 89.875,20.955 89.875,1.026 70.877,0.403 62.556,0 H 16.846 Z M 38.525,16.125 h 18.074 c 3.802,0 7.496,1.44 7.496,6.263 0,2.255 -1.845,5.142 -4,6.477 -2.679,1.749 -7.712,1.749 -24.866,1.536 z"
   style="fill:#ffffff;fill-rule:nonzero"
   id="path14" />
            </g><g
     transform="matrix(0.70016037,0,0,0.7001604,277.73366,33.524065)"
     id="g20">
                <path
   d="m 0,72.629 h 28.457 l 6.673,-11.61 h 29.167 l 1.334,11.61 H 92.04 L 79.398,0 H 48.895 Z M 62.454,44.886 H 44.471 L 59.376,19.109 Z"
   style="fill:#ffffff;fill-rule:nonzero"
   id="path18" />
            </g><g
     transform="matrix(0.70016037,0,0,0.7001604,344.63538,33.602388)"
     id="g24">
                <path
   d="m 0,72.518 h 24.139 l 12.33,-56.809 2.463,56.809 h 19.517 l 28.462,-56.5 -13.56,56.5 H 96.766 L 113.612,0 H 77.553 L 53.826,49.305 52.391,0 h -35.54 z"
   style="fill:#ffffff;fill-rule:nonzero"
   id="path22" />
            </g><g
     transform="matrix(0.70016037,0,0,0.7001604,188.81267,102.74545)"
     id="g28">
                <path
   d="m 0,-16.614 -5.155,10.902 -0.28,-10.902 h -6.151 L -15.296,0 h 3.901 L -8.564,-13.034 -8.095,0 h 3.51 L 1.606,-12.848 -1.332,0 h 3.851 l 3.747,-16.614 z"
   style="fill:#ffffff;fill-rule:nonzero"
   id="path26" />
            </g><g
     transform="matrix(0.70016037,0,0,0.7001604,196.68509,102.74545)"
     id="g32">
                <path
   d="M 0,-16.614 -3.79,0 H 9.387 l 0.679,-3.15 h -9.06 l 0.93,-4.002 h 7.603 l 0.676,-3.055 h -7.6 l 0.732,-3.211 h 7.885 l 0.722,-3.196 z"
   style="fill:#ffffff;fill-rule:nonzero"
   id="path30" />
            </g><g
     transform="matrix(0.70016037,0,0,0.7001604,207.32509,102.74545)"
     id="g36">
                <path
   d="m 0,-16.614 -0.804,3.22 H 3.739 L 0.727,0 h 4.165 l 3.017,-13.394 h 4.303 l 0.82,-3.22 z"
   style="fill:#ffffff;fill-rule:nonzero"
   id="path34" />
            </g><g
     transform="matrix(0.70016037,0,0,0.7001604,216.3454,91.118587)"
     id="g40">
                <path
   d="m 0,16.609 h 4.12 l 1.337,-5.933 h 2.921 l 2.194,5.933 h 4.516 L 12.377,10.042 C 13.746,9.571 14.777,9.195 15.573,8.069 16.257,7.148 16.572,5.968 16.572,4.823 16.572,1.918 14.777,0.605 13.2,0.2 12.495,0.011 11.784,0 11.091,0 H 3.766 Z M 7.228,3.057 h 2.803 c 0.892,0 2.44,0.112 2.44,1.878 0,0.937 -0.495,1.837 -1.1,2.239 -0.525,0.354 -1.366,0.421 -1.939,0.421 H 6.191 Z"
   style="fill:#ffffff;fill-rule:nonzero"
   id="path38" />
            </g><g
     transform="matrix(0.70016037,0,0,0.7001604,240.60519,94.376109)"
     id="g44">
                <path
   d="M 0,7.246 C 0.895,5.582 1.313,3.763 1.313,1.979 c 0,-4.924 -3.55,-7.084 -7.411,-7.084 -7.179,0 -9.555,6.589 -9.555,10.255 0,1.771 0.443,3.731 1.643,5.039 1.02,1.108 2.919,2.162 5.75,2.162 1.478,0 3.014,-0.303 4.335,-0.985 C -2.263,10.471 -0.9,8.943 0,7.246 m -6.593,-8.969 c 0.756,-0.045 3.762,0.12 3.762,3.723 0,2.259 -1.336,7.06 -5.192,7.06 -1.742,0 -3.435,-1.103 -3.435,-3.766 0,-1.427 0.743,-6.828 4.865,-7.017"
   style="fill:#ffffff;fill-rule:nonzero"
   id="path42" />
            </g><g
     transform="matrix(0.70016037,0,0,0.7001604,249.05304,94.929095)"
     id="g48">
                <path
   d="M 0,5.707 C 1.275,5.654 2.477,5.632 3.739,5.113 5.861,4.205 7.387,2.218 7.387,-0.484 7.387,-1.595 7.137,-2.721 6.468,-3.592 5.155,-5.31 3.105,-5.4 1.885,-5.451 H -5.27 L -8.998,11.158 H -4.9 l 1.247,-5.451 z m -1.768,-8.188 h 2.173 c 1.073,0 2.817,0.141 2.817,2.162 0,0.87 -0.421,1.882 -1.201,2.447 C 1.313,2.674 0.637,2.674 0,2.698 h -2.942 z"
   style="fill:#ffffff;fill-rule:nonzero"
   id="path46" />
            </g><g
     transform="matrix(0.70016037,0,0,0.7001604,266.69491,94.376109)"
     id="g52">
                <path
   d="M 0,7.246 C 0.895,5.582 1.31,3.763 1.31,1.979 c 0,-4.924 -3.541,-7.084 -7.411,-7.084 -7.182,0 -9.546,6.589 -9.546,10.255 0,1.771 0.436,3.731 1.634,5.039 1.02,1.108 2.916,2.162 5.752,2.162 1.476,0 3.015,-0.303 4.33,-0.985 C -2.261,10.471 -0.9,8.943 0,7.246 m -6.596,-8.969 c 0.764,-0.045 3.768,0.12 3.768,3.723 0,2.259 -1.345,7.06 -5.201,7.06 -1.742,0 -3.432,-1.103 -3.432,-3.766 0,-1.427 0.742,-6.828 4.865,-7.017"
   style="fill:#ffffff;fill-rule:nonzero"
   id="path50" />
            </g><g
     transform="matrix(0.70016037,0,0,0.7001604,271.48192,102.74545)"
     id="g56">
                <path
   d="M 0,-16.614 -3.739,0 H 7.363 L 8.148,-3.363 H 1.126 L 4.12,-16.614 Z"
   style="fill:#ffffff;fill-rule:nonzero"
   id="path54" />
            </g><g
     transform="matrix(-0.15278764,0.68328678,0.6832864,0.15278737,287.44686,98.049785)"
     id="g60">
                <path
   d="M -7.842,-10.332 H 9.182 l -0.904,4.045 -17.026,0.005 z"
   style="fill:#ffffff;fill-rule:nonzero"
   id="path58" />
            </g><g
     transform="matrix(0.70016037,0,0,0.7001604,286.73127,102.74545)"
     id="g64">
                <path
   d="m 0,-16.614 -0.796,3.22 H 3.736 L 0.735,0 H 4.9 l 3.009,-13.394 h 4.309 l 0.817,-3.22 z"
   style="fill:#ffffff;fill-rule:nonzero"
   id="path62" />
            </g><g
     transform="matrix(0.70016037,0,0,0.7001604,301.37558,99.367137)"
     id="g68">
                <path
   d="M 0,-11.789 -10.146,4.825 h 4.354 l 1.83,-3.286 H 2.154 L 2.37,4.825 H 6.423 L 4.658,-11.789 Z M 1.979,-1.48 h -4.245 l 3.789,-6.826 z m -3.894,-15.134 3.843,3.084 h 2.378 l -1.792,-3.084 z"
   style="fill:#ffffff;fill-rule:nonzero"
   id="path66" />
            </g><g
     transform="matrix(0.70016037,0,0,0.7001604,312.55449,91.118587)"
     id="g72">
                <path
   d="m 0,16.609 h 5.48 c 2.996,0 5.978,-0.075 8.312,-2.146 2.132,-1.883 3.246,-4.892 3.246,-7.909 0,-1.59 -0.262,-4.887 -3.816,-6.093 C 12.074,0.085 10.708,0 9.98,0 H 3.76 Z M 9.131,3.169 c 0.937,0.024 1.853,0.045 2.658,0.73 0.892,0.756 1.012,1.786 1.012,2.679 0,3.158 -1.603,5.445 -2.871,6.167 -1.012,0.618 -2.282,0.644 -3.339,0.663 H 4.772 L 7.083,3.169 Z"
   style="fill:#ffffff;fill-rule:nonzero"
   id="path70" />
            </g><g
     transform="matrix(0.70016037,0,0,0.7001604,327.59164,96.665433)"
     id="g76">
                <path
   d="m 0,-7.931 -0.847,3.79 H 0.541 C 0,-2.724 -0.216,-2.469 -1.462,-1.718 L -1.861,0 c 1.475,-0.467 3.219,-1.034 4.354,-3.383 0.21,-0.428 0.503,-1.277 0.665,-1.93 L 3.76,-7.931 Z"
   style="fill:#ffffff;fill-rule:nonzero"
   id="path74" />
            </g><g
     transform="matrix(0.70016037,0,0,0.7001604,334.63101,102.74545)"
     id="g80">
                <path
   d="M 0,-16.614 -10.143,0 h 4.354 l 1.835,-3.286 H 2.16 L 2.37,0 H 6.431 L 4.66,-16.614 Z m 1.976,10.309 h -4.245 l 3.79,-6.826 z"
   style="fill:#ffffff;fill-rule:nonzero"
   id="path78" />
            </g><g
     transform="matrix(0.70016037,0,0,0.7001604,343.46774,102.74545)"
     id="g84">
                <path
   d="M 0,-16.614 -3.739,0 H 7.363 L 8.149,-3.363 H 1.126 L 4.12,-16.614 Z"
   style="fill:#ffffff;fill-rule:nonzero"
   id="path82" />
            </g><g
     transform="matrix(0.70016037,0,0,0.7001604,356.7174,102.74545)"
     id="g88">
                <path
   d="M 0,-16.614 -10.146,0 h 4.359 l 1.835,-3.286 H 2.157 L 2.37,0 H 6.431 L 4.665,-16.614 Z m 1.976,10.309 h -4.24 l 3.792,-6.826 z"
   style="fill:#ffffff;fill-rule:nonzero"
   id="path86" />
            </g><g
     transform="matrix(0.70016037,0,0,0.7001604,371.37158,95.514165)"
     id="g92">
                <path
   d="m 0,4.045 c -0.444,0.9 -0.927,1.837 -1.936,2.567 -0.581,0.426 -1.313,0.706 -2.015,0.706 -1.439,0 -3.161,-1.148 -3.161,-4.303 0,-3.09 1.818,-6.498 4.734,-6.498 2.144,0 2.759,1.717 2.982,2.373 L 4.586,-2.002 C 4.237,-2.964 3.931,-3.744 3.135,-4.57 1.928,-5.816 -0.162,-6.708 -2.477,-6.708 c -6.14,0 -9.035,5.363 -9.035,9.771 0,5.642 4.07,7.69 7.484,7.69 3.914,0 6.073,-2.493 6.992,-3.955 0.192,-0.276 0.333,-0.54 0.495,-0.817 z"
   style="fill:#ffffff;fill-rule:nonzero"
   id="path90" />
            </g><g
     transform="matrix(0.70016037,0,0,0.7001604,381.06504,102.74545)"
     id="g96">
                <path
   d="M 0,-16.614 -10.146,0 h 4.359 l 1.83,-3.286 H 2.162 L 2.375,0 H 6.428 L 4.66,-16.614 Z m 1.979,10.309 h -4.246 l 3.795,-6.826 z"
   style="fill:#ffffff;fill-rule:nonzero"
   id="path94" />
            </g><g
     transform="matrix(0.70016037,0,0,0.7001604,396.69143,102.74545)"
     id="g100">
                <path
   d="m 0,-16.614 -2.264,10.71 -3.317,-10.71 H -9.683 L -13.472,0 h 3.789 L -7.314,-10.656 -4.05,0 H 0 l 3.79,-16.614 z"
   style="fill:#ffffff;fill-rule:nonzero"
   id="path98" />
            </g><g
     transform="matrix(0.70016037,0,0,0.7001604,401.55642,102.74545)"
     id="g104">
                <path
   d="m 0,-16.614 -0.802,3.22 h 4.54 L 0.729,0 h 4.166 l 3.008,-13.394 h 4.312 l 0.817,-3.22 z"
   style="fill:#ffffff;fill-rule:nonzero"
   id="path102" />
            </g></g>
</svg>
