<?xml version="1.0" encoding="iso-8859-1"?>
<!-- Uploaded to: SVG Repo, www.svgrepo.com, Generator: SVG Repo Mixer Tools -->
<!DOCTYPE svg PUBLIC "-//W3C//DTD SVG 1.1//EN" "http://www.w3.org/Graphics/SVG/1.1/DTD/svg11.dtd">
<svg fill="#000000" version="1.1" id="Capa_1" xmlns="http://www.w3.org/2000/svg" xmlns:xlink="http://www.w3.org/1999/xlink" 
	 width="800px" height="800px" viewBox="0 0 333.225 333.225"
	 xml:space="preserve">
<g>
	<g>
		<path d="M134.453,14.783H10.681C4.783,14.783,0,19.564,0,25.463v47.318c0,5.898,4.782,10.68,10.681,10.68h123.771
			c5.898,0,10.681-4.781,10.681-10.68V25.463C145.133,19.564,140.351,14.783,134.453,14.783z"/>
		<path d="M322.541,14.783H198.775c-5.897,0-10.682,4.781-10.682,10.68v47.318c0,5.898,4.783,10.68,10.682,10.68h123.766
			c5.9,0,10.684-4.781,10.684-10.68V25.463C333.223,19.564,328.441,14.783,322.541,14.783z"/>
		<path d="M134.453,132.271H10.681C4.783,132.271,0,137.054,0,142.953v47.316c0,5.898,4.782,10.682,10.681,10.682h123.771
			c5.898,0,10.681-4.783,10.681-10.682v-47.316C145.133,137.054,140.351,132.271,134.453,132.271z"/>
		<path d="M322.541,132.271H198.775c-5.897,0-10.682,4.783-10.682,10.682v47.316c0,5.898,4.783,10.682,10.682,10.682h123.766
			c5.9,0,10.684-4.783,10.684-10.682v-47.316C333.223,137.054,328.441,132.271,322.541,132.271z"/>
		<path d="M134.453,249.762H10.681C4.783,249.762,0,254.545,0,260.443v47.316c0,5.897,4.782,10.682,10.681,10.682h123.771
			c5.898,0,10.681-4.783,10.681-10.682v-47.316C145.133,254.545,140.351,249.762,134.453,249.762z"/>
		<path d="M322.541,249.762H198.775c-5.897,0-10.682,4.783-10.682,10.682v47.316c0,5.897,4.783,10.682,10.682,10.682h123.766
			c5.9,0,10.684-4.783,10.684-10.682v-47.316C333.223,254.545,328.441,249.762,322.541,249.762z"/>
	</g>
</g>
</svg>