<?xml version="1.0" encoding="iso-8859-1"?>
<!-- Uploaded to: SVG Repo, www.svgrepo.com, Generator: SVG Repo Mixer Tools -->
<!DOCTYPE svg PUBLIC "-//W3C//DTD SVG 1.1//EN" "http://www.w3.org/Graphics/SVG/1.1/DTD/svg11.dtd">
<svg fill="#000000" version="1.1" id="Capa_1" xmlns="http://www.w3.org/2000/svg" xmlns:xlink="http://www.w3.org/1999/xlink" 
	 width="800px" height="800px" viewBox="0 0 429.908 429.908"
	 xml:space="preserve">
<g>
	<path d="M422.313,103.643L219.188,28.14c-1.271-0.559-2.629-0.837-3.984-0.837c-1.366,0-2.732,0.282-4.009,0.847L7.638,103.856
		C3.162,104.912,0,108.907,0,113.503v279.19c0,5.475,4.438,9.912,9.912,9.912h410.085c5.474,0,9.911-4.438,9.911-9.912V113.281
		C429.908,108.699,426.769,104.713,422.313,103.643z M389.908,170.79l-172.391,67.85c0,0-1.631,0.704-2.777,0.704
		c-1.146,0-2.783-0.697-2.783-0.697L40,171.124V136.64l175.244-66.592l174.664,66.284V170.79z"/>
</g>
</svg>