<?xml version="1.0" encoding="iso-8859-1"?>
<!-- Uploaded to: SVG Repo, www.svgrepo.com, Generator: SVG Repo Mixer Tools -->
<!DOCTYPE svg PUBLIC "-//W3C//DTD SVG 1.1//EN" "http://www.w3.org/Graphics/SVG/1.1/DTD/svg11.dtd">
<svg fill="#000000" version="1.1" id="Capa_1" xmlns="http://www.w3.org/2000/svg" xmlns:xlink="http://www.w3.org/1999/xlink" 
	 width="800px" height="800px" viewBox="0 0 390.527 390.527"
	 xml:space="preserve">
<g>
	<g>
		<path d="M370.469,113.479c-8.584,0-15.959-0.054-33.705-0.079V45.162c0-13.974-8.047-19.543-15.801-19.597L15.045,25.561
			C6.736,25.561,0,32.296,0,40.604V301.58c0,34.979,28.457,63.387,63.438,63.387H327.09c34.98,0,63.438-28.408,63.438-63.387
			V133.538C390.527,122.461,381.547,113.479,370.469,113.479z M295.492,323.753H63.438c-12.254,0-22.223-9.947-22.223-22.173V66.776
			l254.335,0.004L295.492,323.753z"/>
		<path d="M70.09,148.56h195.152c3.748,0,6.787-3.04,6.787-6.789v-13.576c0-3.749-3.039-6.789-6.787-6.789H70.09
			c-3.75,0-6.788,3.04-6.788,6.789v13.576C63.302,145.521,66.34,148.56,70.09,148.56z"/>
		<path d="M137.814,174.556H70.475c-3.122,0-5.652,2.53-5.652,5.652v83.262c0,3.121,2.53,5.651,5.652,5.651h67.339
			c3.122,0,5.653-2.53,5.653-5.651v-83.262C143.467,177.086,140.936,174.556,137.814,174.556z"/>
		<path d="M265.242,182.449h-91.649c-3.748,0-6.787,3.039-6.787,6.788v9.603c0,3.749,3.039,6.788,6.787,6.788h91.649
			c3.748,0,6.787-3.039,6.787-6.788v-9.603C272.029,185.488,268.99,182.449,265.242,182.449z"/>
		<path d="M265.242,240.486h-91.649c-3.748,0-6.787,3.038-6.787,6.787v9.604c0,3.75,3.039,6.789,6.787,6.789h91.649
			c3.748,0,6.787-3.039,6.787-6.789v-9.604C272.029,243.523,268.99,240.486,265.242,240.486z"/>
	</g>
</g>
</svg>